<svg width="78" height="78" viewBox="0 0 78 78" fill="none" xmlns="http://www.w3.org/2000/svg">
<g filter="url(#filter0_d_141_6)">
<rect x="9" y="5" width="60" height="60" fill="white"/>
</g>
<path d="M50.512 39.8626C49.7168 41.7432 48.473 43.4004 46.8894 44.6892C45.3057 45.9781 43.4305 46.8594 41.4276 47.2561C39.4247 47.6528 37.3551 47.5528 35.3997 46.9648C33.4444 46.3769 31.6628 45.3189 30.2108 43.8834C28.7588 42.4479 27.6805 40.6785 27.0703 38.73C26.4601 36.7815 26.3365 34.7132 26.7103 32.7059C27.0841 30.6986 27.9439 28.8134 29.2146 27.2151C30.4853 25.6169 32.1281 24.3542 33.9995 23.5376" stroke="#54BD95" stroke-width="2" stroke-linecap="round" stroke-linejoin="round"/>
<path d="M51.5 35C51.5 33.3585 51.1767 31.733 50.5485 30.2165C49.9203 28.6999 48.9996 27.3219 47.8388 26.1612C46.6781 25.0004 45.3001 24.0797 43.7835 23.4515C42.267 22.8233 40.6415 22.5 39 22.5V35H51.5Z" stroke="#54BD95" stroke-width="2" stroke-linecap="round" stroke-linejoin="round"/>
<defs>
<filter id="filter0_d_141_6" x="0" y="0" width="78" height="78" filterUnits="userSpaceOnUse" color-interpolation-filters="sRGB">
<feFlood flood-opacity="0" result="BackgroundImageFix"/>
<feColorMatrix in="SourceAlpha" type="matrix" values="0 0 0 0 0 0 0 0 0 0 0 0 0 0 0 0 0 0 127 0" result="hardAlpha"/>
<feOffset dy="4"/>
<feGaussianBlur stdDeviation="4.5"/>
<feComposite in2="hardAlpha" operator="out"/>
<feColorMatrix type="matrix" values="0 0 0 0 0 0 0 0 0 0 0 0 0 0 0 0 0 0 0.05 0"/>
<feBlend mode="normal" in2="BackgroundImageFix" result="effect1_dropShadow_141_6"/>
<feBlend mode="normal" in="SourceGraphic" in2="effect1_dropShadow_141_6" result="shape"/>
</filter>
</defs>
</svg>
